ffmpeg version N-55863-g9f38fac053-static https://johnvansickle.com/ffmpeg/  Copyright (c) 2000-2021 the FFmpeg developers
  built with gcc 8 (Debian 8.3.0-6)
  configuration: --enable-gpl --enable-version3 --enable-static --disable-debug --disable-ffplay --disable-indev=sndio --disable-outdev=sndio --cc=gcc --enable-fontconfig --enable-frei0r --enable-gnutls --enable-gmp --enable-libgme --enable-gray --enable-libaom --enable-libfribidi --enable-libass --enable-libvmaf --enable-libfreetype --enable-libmp3lame --enable-libopencore-amrnb --enable-libopencore-amrwb --enable-libopenjpeg --enable-librubberband --enable-libsoxr --enable-libspeex --enable-libsrt --enable-libvorbis --enable-libopus --enable-libtheora --enable-libvidstab --enable-libvo-amrwbenc --enable-libvpx --enable-libwebp --enable-libx264 --enable-libx265 --enable-libxml2 --enable-libdav1d --enable-libxvid --enable-libzvbi --enable-libzimg
  libavutil      56. 64.100 / 56. 64.100
  libavcodec     58.119.100 / 58.119.100
  libavformat    58. 65.101 / 58. 65.101
  libavdevice    58. 11.103 / 58. 11.103
  libavfilter     7.100.100 /  7.100.100
  libswscale      5.  8.100 /  5.  8.100
  libswresample   3.  8.100 /  3.  8.100
  libpostproc    55.  8.100 / 55.  8.100
Input #0, mov,mp4,m4a,3gp,3g2,mj2, from '/home/yiaapc5/public_html/f_data/data_userfiles/user_uploads/1488209874/v/1614565540.mp4':
  Metadata:
    major_brand     : isom
    minor_version   : 512
    compatible_brands: isomiso2avc1mp41
    encoder         : Lavf58.54.100
  Duration: 00:01:55.68, start: 0.000000, bitrate: 2397 kb/s
    Stream #0:0(und): Video: h264 (Main) (avc1 / 0x31637661), yuv420p(tv), 730x406 [SAR 1:1 DAR 365:203], 2303 kb/s, 21.72 fps, 100 tbr, 90k tbn, 60 tbc (default)
    Metadata:
      handler_name    : VideoHandler
      vendor_id       : [0][0][0][0]
    Stream #0:1(und): Audio: aac (LC) (mp4a / 0x6134706D), 44100 Hz, stereo, fltp, 88 kb/s (default)
    Metadata:
      handler_name    : SoundHandler
      vendor_id       : [0][0][0][0]
Codec AVOption rc_eq (Set rate control equation. When computing the expression, besides the standard functions defined in the section 'Expression Evaluation', the following functions are available: bits2qp(bits), qp2bits(qp). Also the following constants are available: iTex pTex tex mv fCode iCount mcVar var isI isP isB avgQP qComp avgIITex avgPITex avgPPTex avgBPTex avgTex.) specified for output file #0 (/home/yiaapc5/public_html/f_data/data_userfiles/user_media/1488209874/v/f07c815f63dd2a4c0d3bd7bb3bf19bec.mob.nomob.mp4) has not been used for any stream. The most likely reason is either wrong type (e.g. a video option with no video streams) or that it is a private option of some encoder which was not actually used for any stream.
Stream mapping:
  Stream #0:0 -> #0:0 (h264 (native) -> h264 (libx264))
  Stream #0:1 -> #0:1 (aac (native) -> aac (native))
Press [q] to stop, [?] for help
[libx264 @ 0x5800dc0] Application has requested 32 threads. Using a thread count greater than 16 is not recommended.
[libx264 @ 0x5800dc0] using SAR=3179/3120
[libx264 @ 0x5800dc0] frame MB size (30x17) > level limit (396)
[libx264 @ 0x5800dc0] VBV bitrate (10000) > level limit (768)
[libx264 @ 0x5800dc0] VBV buffer (10000) > level limit (2000)
[libx264 @ 0x5800dc0] MB rate (15300) > level limit (11880)
[libx264 @ 0x5800dc0] using cpu capabilities: MMX2 SSE2Fast SSSE3 SSE4.2 AVX
[libx264 @ 0x5800dc0] profile Constrained Baseline, level 1.3, 4:2:0, 8-bit
[libx264 @ 0x5800dc0] 264 - core 161 r3040 35417dc - H.264/MPEG-4 AVC codec - Copyleft 2003-2021 - http://www.videolan.org/x264.html - options: cabac=0 ref=1 deblock=1:0:0 analyse=0x1:0 me=hex subme=1 psy=1 psy_rd=1.00:0.00 mixed_ref=0 me_range=16 chroma_me=1 trellis=0 8x8dct=0 cqm=0 deadzone=21,11 fast_pskip=1 chroma_qp_offset=0 threads=32 lookahead_threads=2 sliced_threads=0 nr=0 decimate=1 interlaced=0 bluray_compat=0 constrained_intra=0 bframes=0 weightp=0 keyint=300 keyint_min=25 scenecut=40 intra_refresh=0 rc_lookahead=30 rc=abr mbtree=1 bitrate=1000 ratetol=1.0 qcomp=0.60 qpmin=10 qpmax=51 qpstep=4 vbv_maxrate=10000 vbv_bufsize=10000 nal_hrd=none filler=0 ip_ratio=1.41 aq=1:1.00
Output #0, mp4, to '/home/yiaapc5/public_html/f_data/data_userfiles/user_media/1488209874/v/f07c815f63dd2a4c0d3bd7bb3bf19bec.mob.nomob.mp4':
  Metadata:
    major_brand     : isom
    minor_version   : 512
    compatible_brands: isomiso2avc1mp41
    encoder         : Lavf58.65.101
    Stream #0:0(und): Video: h264 (avc1 / 0x31637661), yuv420p(tv, progressive), 480x272 [SAR 3179:3120 DAR 187:104], q=2-31, 1000 kb/s, 30 fps, 15360 tbn (default)
    Metadata:
      handler_name    : VideoHandler
      vendor_id       : [0][0][0][0]
      encoder         : Lavc58.119.100 libx264
    Side data:
      cpb: bitrate max/min/avg: 10000000/0/1000000 buffer size: 10000000 vbv_delay: N/A
    Stream #0:1(und): Audio: aac (LC) (mp4a / 0x6134706D), 44100 Hz, stereo, fltp, 88 kb/s (default)
    Metadata:
      handler_name    : SoundHandler
      vendor_id       : [0][0][0][0]
      encoder         : Lavc58.119.100 aac
frame=    1 fps=0.0 q=0.0 size=       0kB time=00:00:00.65 bitrate=   0.6kbits/s speed=27.7x    frame=  318 fps=0.0 q=24.0 size=    1024kB time=00:00:11.74 bitrate= 714.0kbits/s dup=92 drop=0 speed=22.4x    frame=  590 fps=576 q=23.0 size=    2048kB time=00:00:20.22 bitrate= 829.6kbits/s dup=187 drop=0 speed=19.8x    frame=  783 fps=514 q=23.0 size=    2816kB time=00:00:26.61 bitrate= 866.9kbits/s dup=238 drop=0 speed=17.5x    frame= 1022 fps=504 q=23.0 size=    4096kB time=00:00:34.69 bitrate= 967.3kbits/s dup=308 drop=0 speed=17.1x    frame= 1199 fps=474 q=26.0 size=    5120kB time=00:00:40.49 bitrate=1035.8kbits/s dup=354 drop=0 speed=  16x    frame= 1492 fps=493 q=24.0 size=    6144kB time=00:00:50.34 bitrate= 999.8kbits/s dup=443 drop=0 speed=16.6x    frame= 1770 fps=502 q=24.0 size=    7424kB time=00:00:59.53 bitrate=1021.5kbits/s dup=516 drop=0 speed=16.9x    frame= 1993 fps=495 q=25.0 size=    8448kB time=00:01:07.03 bitrate=1032.4kbits/s dup=571 drop=0 speed=16.6x    frame= 2254 fps=497 q=26.0 size=    9984kB time=00:01:15.85 bitrate=1078.2kbits/s dup=638 drop=0 speed=16.7x    frame= 2510 fps=499 q=25.0 size=   10752kB time=00:01:24.21 bitrate=1045.9kbits/s dup=707 drop=0 speed=16.7x    frame= 2737 fps=495 q=26.0 size=   12032kB time=00:01:31.92 bitrate=1072.2kbits/s dup=764 drop=0 speed=16.6x    frame= 2982 fps=494 q=25.0 size=   13056kB time=00:01:40.07 bitrate=1068.7kbits/s dup=829 drop=0 speed=16.6x    frame= 3239 fps=495 q=25.0 size=   14080kB time=00:01:48.62 bitrate=1061.9kbits/s dup=895 drop=0 speed=16.6x    frame= 3470 fps=495 q=-1.0 Lsize=   15401kB time=00:01:55.63 bitrate=1091.1kbits/s dup=958 drop=0 speed=16.5x    
video:14055kB audio:1249kB subtitle:0kB other streams:0kB global headers:0kB muxing overhead: 0.633863%
[libx264 @ 0x5800dc0] frame I:26    Avg QP:16.94  size: 16475
[libx264 @ 0x5800dc0] frame P:3444  Avg QP:19.56  size:  4054
[libx264 @ 0x5800dc0] mb I  I16..4: 14.6%  0.0% 85.4%
[libx264 @ 0x5800dc0] mb P  I16..4:  5.3%  0.0%  0.0%  P16..4: 57.3%  0.0%  0.0%  0.0%  0.0%    skip:37.4%
[libx264 @ 0x5800dc0] final ratefactor: 18.59
[libx264 @ 0x5800dc0] coded y,uvDC,uvAC intra: 52.7% 67.9% 43.4% inter: 27.4% 24.8% 6.7%
[libx264 @ 0x5800dc0] i16 v,h,dc,p: 33% 42% 15% 10%
[libx264 @ 0x5800dc0] i4 v,h,dc,ddl,ddr,vr,hd,vl,hu: 18% 37%  8%  6%  6%  4%  8%  3% 10%
[libx264 @ 0x5800dc0] i8c dc,h,v,p: 32% 36% 23%  9%
[libx264 @ 0x5800dc0] kb/s:995.40
[aac @ 0x585ddc0] Qavg: 208.221
